<?xml version="1.0" standalone="no"?>
<!DOCTYPE svg PUBLIC "-//W3C//DTD SVG 20010904//EN"
 "http://www.w3.org/TR/2001/REC-SVG-20010904/DTD/svg10.dtd">
<svg version="1.0" xmlns="http://www.w3.org/2000/svg"
 width="75.000000pt" height="75.000000pt" viewBox="0 0 75.000000 75.000000"
 preserveAspectRatio="xMidYMid meet">
<metadata>
Created by potrace 1.11, written by Peter Selinger 2001-2013
</metadata>
<g transform="translate(0.000000,75.000000) scale(0.100000,-0.100000)"
fill="#000000" stroke="none">
<path d="M224 705 c3 -11 8 -33 11 -50 10 -62 14 -74 35 -115 64 -126 185
-175 360 -145 25 4 53 8 63 8 9 1 17 5 17 9 0 7 -15 12 -31 10 -4 -1 -40 9
-82 22 -139 43 -239 113 -345 241 -21 25 -31 33 -28 20z"/>
<path d="M89 587 c33 -85 34 -294 3 -392 -19 -59 -46 -120 -56 -127 -7 -5 -7
-8 1 -8 16 0 131 117 138 141 4 11 11 19 17 19 6 0 8 3 5 7 -4 3 -2 12 3 19
14 16 21 47 24 110 3 41 -3 64 -25 110 -41 84 -135 187 -110 121z"/>
<path d="M373 300 c-54 -24 -110 -75 -148 -135 -45 -72 -56 -104 -23 -71 39
39 228 123 248 111 5 -3 11 -1 15 5 8 13 257 9 268 -5 6 -6 7 -5 5 4 -4 15
-126 82 -179 98 -55 16 -142 13 -186 -7z"/>
</g>
</svg>
